HIERARCHY
ROOT base
{
	OFFSET 0.0 0.0 0.0
	CHANNELS 6 Xposition Yposition Zposition Zrotation Yrotation Xrotation
	JOINT root
	{
		OFFSET 0 0 0
		CHANNELS 6 Xposition Yposition Zposition Zrotation Yrotation Xrotation
		JOINT chest
		{
			OFFSET 0 4.72302 0
			CHANNELS 3 Zrotation Yrotation Xrotation
			JOINT neck
			{
				OFFSET 0 4.47788 0
				CHANNELS 3 Zrotation Yrotation Xrotation
				End Site
				{
					OFFSET 0.0 0.0 0.0
				}
			}
			JOINT right_shoulder
			{
				OFFSET -0.481 4.87 3.6622
				CHANNELS 3 Zrotation Yrotation Xrotation
				JOINT right_elbow
				{
					OFFSET 0 -5.49576 0
					CHANNELS 3 Zrotation Yrotation Xrotation
					JOINT right_wrist
					{
						OFFSET 0 -5.17894 0
						CHANNELS 3 Zrotation Yrotation Xrotation
						End Site
						{
							OFFSET 0.0 0.0 0.0
						}
					}
				}
			}
			JOINT left_shoulder
			{
				OFFSET -0.481 4.87 -3.6622
				CHANNELS 3 Zrotation Yrotation Xrotation
				JOINT left_elbow
				{
					OFFSET 0 -5.49576 0
					CHANNELS 3 Zrotation Yrotation Xrotation
					JOINT left_wrist
					{
						OFFSET 0 -5.17894 0
						CHANNELS 3 Zrotation Yrotation Xrotation
						End Site
						{
							OFFSET 0.0 0.0 0.0
						}
					}
				}
			}
		}
		JOINT right_hip
		{
			OFFSET 0 0 1.69774
			CHANNELS 3 Zrotation Yrotation Xrotation
			JOINT right_knee
			{
				OFFSET 0 -8.43092 0
				CHANNELS 3 Zrotation Yrotation Xrotation
				JOINT right_ankle
				{
					OFFSET 0 -8.1974 0
					CHANNELS 3 Zrotation Yrotation Xrotation
					End Site
					{
						OFFSET 0.0 0.0 0.0
					}
				}
			}
		}
		JOINT left_hip
		{
			OFFSET 0 0 -1.69774
			CHANNELS 3 Zrotation Yrotation Xrotation
			JOINT left_knee
			{
				OFFSET 0 -8.43092 0
				CHANNELS 3 Zrotation Yrotation Xrotation
				JOINT left_ankle
				{
					OFFSET 0 -8.1974 0
					CHANNELS 3 Zrotation Yrotation Xrotation
					End Site
					{
						OFFSET 0.0 0.0 0.0
					}
				}
			}
		}
	}
	JOINT red_arrow
	{
		OFFSET 0 0 0
		CHANNELS 3 Zrotation Yrotation Xrotation
		End Site
		{
			OFFSET 0.0 0.0 0.0
		}
	}
	JOINT blue_arrow
	{
		OFFSET 0 0 0
		CHANNELS 3 Zrotation Yrotation Xrotation
		End Site
		{
			OFFSET 0.0 0.0 0.0
		}
	}
}
MOTION
Frames: 15
Frame Time: 0.0333333333333333
176.065994337201 0 -7.5887642913498 0 -5.73617071584028 0 0 16.907065141201 0 -8.18691709213458 1.53059115561114 -1.14754338625544 -5.24179826666311 -3.52732536223843 10.9943234978385 1.15335879170846 1.93396355022218 -3.40155374937339 -12.4713703056745 -12.8931496126544 -14.0842009189876 7.13123359966247 0 0 0 0 0 16.8599577974098 -33.868785077143 23.4816189862907 35.96935735808 0 0 0 0 0 48.7595110254427 -7.18837204446806 -7.13516664943314 -37.3668789490617 0 0 1.69618414486312 -11.2202485888152 -3.39960736282258 -8.51386545374799 11.1364519348844 2.52844483145761 0.00125227864464406 0 0 17.3588574288226 -8.80092094765499 -4.75765506366896 0 0 0 0 0 0
176.662399020791 0 -7.35703424848616 0 -5.66367444012399 0 0 16.6817063450813 0 -9.82364991480825 1.35724037204249 -0.652655778377951 -6.43186902601804 -2.37502844983085 10.8310719281001 1.4994685778237 2.73759558037159 -2.89453527270617 -12.6847534530333 -13.8758582327653 -12.8128180129191 5.84627139176844 0 0 0 0 0 17.3000643509938 -34.4777368824556 24.5658194383411 37.288188339634 0 0 0 0 0 45.6595258812146 -8.54820687609751 -5.67324881365261 -27.3592891922536 0 0 -0.720044385433636 -8.66975846096356 -2.08891916863718 -9.09444000105733 11.2869644822161 2.64216806040673 0.00127742796896087 0 0 19.5940871929376 -8.52514541325216 -5.80025499383517 0 0 0 0 0 0
177.295359489322 0 -7.1219139739871 0 -5.62615381046546 0 0 16.402463555336 0 -11.8154109667032 0.697788967491984 0.0628241022491439 -7.35762005471879 -0.545178826740098 10.5922674974746 1.70472299479538 3.51307647091665 -2.5912937595654 -12.695768983894 -14.7601648983305 -11.9208250634778 4.82678668408176 0 0 0 0 0 17.459635888499 -34.6006221721411 25.0982885558754 38.2097003869792 0 0 0 0 0 41.8383878332827 -8.29224271729378 -3.63255638088797 -18.0161368228098 0 0 -8.49550430054295 -5.91973313180723 -1.53371034205966 -9.33706669694188 11.6742629604285 2.50039789934131 -0.573624045933412 0 0 22.3170136719076 -7.99001979901545 -6.7880970148236 0 0 0 0 0 0
177.725903111696 0 -6.81776700727642 0 -5.80678556598664 0 0 16.4554632425308 0 -14.8682888073887 -3.31735492162695 -1.24524388814122 -7.6721086795741 2.43829897526045 11.1484523496742 0.163482334775773 4.08344419529139 -1.96964379202701 -11.7286786299409 -15.1568920367175 -11.6253304701565 4.44383206458431 0 0 0 0 0 17.8367510127065 -34.311361318371 24.4349982715984 38.3344469619803 0 0 0 0 0 42.0700257744505 -7.3737256585919 0.99039915876638 -15.8393299211173 0 0 -11.2241701991533 -5.15062768175679 -2.22082095293488 -7.30869187736679 13.5220921552572 4.43704958005646 -1.55601879871451 0 0 20.5481054966027 -7.77494003200276 -5.64546797814349 0 0 0 0 0 0
178.269334518909 0 -6.57129144594073 0 -6.15191714871418 0 0 16.6614582419395 0 -16.1498070436731 -6.30084965093385 -1.46525412906942 -6.70456104352637 2.45084265190322 9.22546756801096 -1.28132751421445 3.2596989680945 -1.48734648851569 -11.8095765279625 -14.7791854676687 -11.0629587146031 5.41597459669952 0 0 0 0 0 16.2431750408968 -33.5541176010237 23.5046006512976 38.1294354189478 0 0 0 0 0 39.0558522145356 -7.06395997910218 3.87730365001861 -11.6729614849601 0 0 -11.3647587693803 -3.17384503802438 -3.18740646563296 -5.9002994065213 13.3841288882883 4.92544415137366 -5.58785459961559 0 0 15.8149292857538 -10.137187356663 -2.6910943954735 0 0 0 0 0 0
178.91736099124 0 -6.27885542586446 0 -6.66557160980023 0 0 16.8172512173653 0 -15.4543126509475 -9.41299540696618 -2.19160020934913 -5.85242466698738 0.535107302999748 7.25018894497337 -1.56847009495446 2.12958122362076 -1.47525700738871 -11.30672809607 -6.25927848272183 -10.2063001953258 6.52192565729715 0 0 0 0 0 13.8000720609412 -28.7286399676147 22.6370576186171 37.1347105738892 0 0 0 0 0 34.9579019843551 -5.45117716745133 6.97779892034327 -9.80667888859853 0 0 -10.0719881639776 -2.0312870825014 -3.80400542619629 -4.99400484819525 12.7072815183452 5.28357997583751 -11.2517514028082 0 0 11.989342463198 -10.1122429983684 1.06261053578931 0 0 0 0 0 0
179.582274127007 0 -5.97566877529025 0 -7.30512452231335 0 0 16.9389773964882 0 -13.9680160975929 -11.8024177799352 -3.17220234050145 -4.80688426586099 -1.10552722771017 5.33935432559188 -1.25177799310839 1.03332382192101 -1.86415480379247 -10.4519232435954 -0.12217916498371 -9.24358938960241 7.46791966394861 0 0 0 0 0 11.6024542259338 -24.701770667671 21.2054043908504 35.6554657694883 0 0 0 0 0 30.9695202215979 -3.28421958198306 9.50924805503225 -9.41521854915029 0 0 -7.96582099942192 -1.64617818071187 -4.14456745936438 -3.56300309538043 11.3813069462129 6.19217413987879 -17.9731066310387 0 0 8.59536144416845 -10.2717233333231 3.61990999809132 0 0 0 0 0 0
180.235991033912 0 -5.68251943215728 0 -8.00693059501836 0 0 17.0318303585053 0 -12.1518366968418 -13.0458666634917 -4.32437813125552 -3.634935115085 -2.39715783904379 3.89794343791842 -0.940100103425932 0.0851768750019461 -2.42786751958963 -9.48965883761546 4.84680580745605 -8.61949594381552 8.23969774298785 0 0 0 0 0 9.50760948199777 -20.729321065698 19.4903431986005 33.6121839434277 0 0 0 0 0 27.2327720651517 -1.87367970383553 11.2865633719229 -10.0449047877912 0 0 -5.31885319327344 -1.26581811478777 -4.42469782314517 -0.821829951688565 10.0750346057389 8.09196495981046 -26.316040975784 0 0 4.00051577418242 -11.4129358592699 4.7870014606728 0 0 0 0 0 0
180.875532871485 0 -5.43155274242163 0 -8.72465211735938 0 0 17.1053899645805 0 -10.20028681546 -13.429043126641 -5.32559861065622 -2.33124129362979 -3.05441710500794 2.83911356115234 -0.679838822020337 -0.701022444509504 -2.91850112307379 -8.18464077701219 9.10387754684832 -8.27694787610234 8.76007790302007 0 0 0 0 0 7.42251801268042 -16.5948415054788 17.7981632235509 31.2665569635674 0 0 0 0 0 23.6321519062078 -0.774630302284957 12.2934968905378 -11.016017668889 0 0 -2.54010710250585 -1.07208697116221 -4.53007408828674 3.27021455488344 8.49583578486817 10.2729056883877 -35.897104201945 0 0 -0.122442874775575 -11.9842809030257 3.63385347681824 0 0 0 0 0 0
181.502917161584 0 -5.23873617947102 0 -9.40989754900624 0 0 17.1773501515389 0 -8.10974145093166 -12.8938348219659 -5.8803403251907 -1.13632776087525 -3.20481869894749 1.67262138310279 -0.524972787991697 -1.42217080464534 -3.0819247243783 -6.25453668133723 12.7915020151395 -8.07893537720016 9.22221960132054 0 0 0 0 0 5.34554968901324 -12.4139257653291 16.4404988197071 28.555501202733 0 0 0 0 0 19.6847769563685 -0.398600102361913 12.2766092548732 -11.6753571738115 0 0 0.0446291758441576 -0.687234361305649 -4.47701426539099 8.65767340542784 6.42367700596798 12.153422390487 -46.1169728230625 0 0 -4.42314653188551 -11.9667561304995 1.92561047323245 0 0 0 0 0 0
182.129852843285 0 -5.10058202147484 0 -10.024782667579 0 0 17.2526543617249 0 -5.94869685178343 -11.6216221810807 -5.96813848121823 -0.0712135269071584 -2.84942524541592 0.404270452168342 -0.416130626029946 -2.11528768002315 -3.04013186724191 -3.84702775042378 15.8938658078332 -8.05779083650742 9.96923909839212 0 0 0 0 0 3.31365583438713 -8.59682988608352 15.5281739178518 25.2949584307184 0 0 0 0 0 15.2475459700145 -0.554076838344249 11.4233958216818 -11.6492018181586 0 0 2.2840894438188 -0.29717879277824 -4.22851522948527 14.7309580589139 4.16980997269596 13.7703255743684 -55.8794236754643 0 0 -9.40918966223536 -11.3320422373685 -0.218339542221678 0 0 0 0 0 0
182.76736779511 0 -5.02914240807295 0 -10.5618335215523 0 0 17.3292215585709 0 -3.80387653358581 -10.1819575006112 -5.47340985957051 0.853272384447067 -1.91203186517587 -0.878206661182412 -0.321064548248829 -2.79569634668026 -2.91909416633487 -1.16856300331629 18.6623458774205 -8.36191815260471 11.14460195643 0 0 0 0 0 1.25311510584304 -5.12924237091016 15.041257838125 21.7018964366981 0 0 0 0 0 10.5352501984053 -0.928095410349761 9.82483999763978 -11.0506006242041 0 0 4.20675850838413 0.157814006900332 -3.73219217237968 20.9893443570769 2.27333177281341 14.8996910272465 -64.0897208691698 0 0 -12.5889453565712 -9.87238096493842 -1.56778228040242 0 0 0 0 0 0
183.412394581735 0 -5.02140707373619 0 -11.0300526693585 0 0 17.4002342939377 0 -1.76820676143577 -8.89199548364377 -4.45186208711788 1.45132178729327 -0.633784922682038 -2.16774256775634 -0.171962914110802 -3.36539377896542 -2.69447720980996 1.57553195895723 21.3127466594754 -9.04129015247691 12.8329828843485 0 0 0 0 0 -0.86931227129276 -2.06994434650315 14.9393294592838 18.2394583954598 0 0 0 0 0 5.77016458141804 -1.59405519761285 7.6180140859646 -10.0303402631598 0 0 5.85754976368857 0.862902430841705 -2.99002454701071 27.0231678004828 0.946289585880271 15.4910158807947 -69.8476249810039 0 0 -13.0424687956102 -7.70577963011404 -2.01517549650884 0 0 0 0 0 0
184.038933011144 0 -5.06501628980041 0 -11.4432235147967 0 0 17.4518764138222 0 -0.16726069722145 -7.85021303042689 -3.14821664322563 1.71554294097875 0.686900390002379 -3.35080153627959 0.0619101234491518 -3.71402272437447 -2.44480569701577 4.11556118896032 23.8225814156358 -10.2560069812826 14.9350521485954 0 0 0 0 0 -2.97208226838618 0.48507822549094 14.9976021458357 15.2600223040208 0 0 0 0 0 1.56546467939169 -2.77563623862462 5.13464635459035 -8.96149676654916 0 0 7.35467527465749 1.9558377559388 -2.03609487407511 32.6243503780165 0.171981417709677 15.6607300033574 -72.4494079604019 0 0 -11.3487041552579 -5.24759114755476 -1.64993704710002 0 0 0 0 0 0
184.620831061061 0 -5.12746732011437 0 -11.8073708250046 0 0 17.4743588209152 0 0.79552051492671 -6.91813847170423 -1.96100237277512 1.5396444677249 1.81116700138628 -4.42858564545604 0.374579979137209 -3.77433579224087 -2.3307472668912 6.33703528495785 26.2102284041854 -11.9741818960518 17.3255500562081 0 0 0 0 0 -5.01082998597759 2.51591981245027 15.2104106642618 12.9178206640292 0 0 0 0 0 -1.79198518787226 -4.40881064790764 2.91742100362912 -7.86486464530036 0 0 8.67903396132077 3.23271037771306 -0.984575889625466 37.4471291653935 -0.196551929129388 15.5487106912342 -71.6526595635307 0 0 -8.15640096450069 -2.63471388846231 -0.646855947130527 0 0 0 0 0 0
